<svg xmlns="http://www.w3.org/2000/svg" width="1100" height="700" viewBox="0 0 1100 700"><rect width="1100" height="700" rx="28" fill="#081126"/><path d="M0 0h1100v118H0z" fill="#101d38"/><text x="70" y="65" fill="#72d6d0" font-family="Georgia" font-size="34">D&amp;D MASTER</text><text x="70" y="94" fill="#9db9d5" font-family="sans-serif" font-size="15">СТОЛ ЛЕТОПИСЦА · библиотека слева, новая история справа</text><text x="70" y="174" fill="#e8f4ff" font-family="Georgia" font-size="25">Ваши хроники</text><g fill="#101d38" stroke="#3c5578"><rect x="70" y="205" width="600" height="120" rx="16"/><rect x="70" y="345" width="600" height="120" rx="16"/><rect x="70" y="485" width="600" height="120" rx="16"/></g><path d="M92 225v80" stroke="#72d6d0" stroke-width="5"/><path d="M92 365v80" stroke="#d39bee" stroke-width="5"/><path d="M92 505v80" stroke="#d7b86a" stroke-width="5"/><g font-family="Georgia" font-size="22" fill="#e8f4ff"><text x="125" y="250">Пепел Фандалина</text><text x="125" y="390">Копи Мореи</text><text x="125" y="530">Северный тракт</text></g><g font-family="sans-serif" font-size="15" fill="#9db9d5"><text x="125" y="280">4 героя · сегодня</text><text x="125" y="420">2 героя · 28 августа</text><text x="125" y="560">5 героев · 14 августа</text></g><g fill="#21345b" stroke="#72d6d0"><rect x="505" y="239" width="135" height="48" rx="12"/><rect x="505" y="379" width="135" height="48" rx="12"/><rect x="505" y="519" width="135" height="48" rx="12"/></g><g font-family="sans-serif" font-size="15" fill="#e8f4ff" text-anchor="middle"><text x="572" y="269">Открыть</text><text x="572" y="409">Открыть</text><text x="572" y="549">Открыть</text></g><rect x="720" y="174" width="310" height="431" rx="22" fill="#121f3d" stroke="#72d6d0" stroke-width="2"/><circle cx="875" cy="258" r="48" fill="none" stroke="#72d6d0" stroke-width="3"/><path d="M875 232v52m-26-26h52" stroke="#72d6d0" stroke-width="4"/><text x="875" y="345" text-anchor="middle" fill="#e8f4ff" font-family="Georgia" font-size="24">Новая история</text><rect x="765" y="380" width="220" height="50" rx="10" fill="#081126" stroke="#3c5578"/><text x="785" y="411" fill="#718ca9" font-family="sans-serif" font-size="15">Название кампании</text><rect x="765" y="455" width="220" height="52" rx="12" fill="#21345b" stroke="#72d6d0"/><text x="875" y="488" text-anchor="middle" fill="#e8f4ff" font-family="sans-serif" font-size="16">Начать приключение</text><text x="550" y="670" text-anchor="middle" fill="#718ca9" font-family="sans-serif" font-size="14">B · самый практичный для длинного списка кампаний</text></svg>
