<svg xmlns="http://www.w3.org/2000/svg" width="1100" height="700" viewBox="0 0 1100 700"><defs><radialGradient id="m"><stop stop-color="#1b3057"/><stop offset="1" stop-color="#081126"/></radialGradient></defs><rect width="1100" height="700" rx="28" fill="url(#m)"/><text x="550" y="64" text-anchor="middle" fill="#72d6d0" font-family="Georgia" font-size="36">D&amp;D MASTER</text><text x="550" y="94" text-anchor="middle" fill="#9db9d5" font-family="sans-serif" font-size="15">ЛУННЫЙ ЦИФЕРБЛАТ · каждая хроника — крупная руна</text><circle cx="550" cy="366" r="248" fill="#09152d" stroke="#3c5578" stroke-width="3"/><circle cx="550" cy="366" r="176" fill="#101d38" stroke="#d39bee" stroke-width="2" stroke-dasharray="5 13"/><circle cx="550" cy="366" r="103" fill="#152848" stroke="#72d6d0" stroke-width="3"/><path d="M550 263a103 103 0 0 0 0 206 76 76 0 0 1 0-206" fill="#d6e6ef" opacity=".85"/><text x="550" y="358" text-anchor="middle" fill="#e8f4ff" font-family="Georgia" font-size="20">Выберите</text><text x="550" y="386" text-anchor="middle" fill="#e8f4ff" font-family="Georgia" font-size="20">хронику</text><g fill="#17284a" stroke-width="3"><circle cx="550" cy="137" r="72" stroke="#72d6d0"/><circle cx="337" cy="366" r="72" stroke="#d39bee"/><circle cx="763" cy="366" r="72" stroke="#d7b86a"/><circle cx="550" cy="595" r="72" stroke="#72a7f2"/></g><g text-anchor="middle" font-family="Georgia" font-size="17" fill="#e8f4ff"><text x="550" y="132">Пепел</text><text x="550" y="155">Фандалина</text><text x="337" y="362">Копи</text><text x="337" y="385">Мореи</text><text x="763" y="362">Северный</text><text x="763" y="385">тракт</text><text x="550" y="590">＋ Новая</text><text x="550" y="613">история</text></g><text x="550" y="680" text-anchor="middle" fill="#718ca9" font-family="sans-serif" font-size="14">C · выразительный выбор для 1–4 кампаний</text></svg>
