<svg xmlns="http://www.w3.org/2000/svg" width="760" height="360" viewBox="0 0 760 360"><rect width="760" height="360" rx="24" fill="#081126"/><rect x="22" y="98" width="716" height="232" rx="18" fill="#101d38" stroke="#5d4d8c" stroke-width="2"/><rect x="40" y="28" width="250" height="54" rx="14" fill="#172044" stroke="#b58af0" stroke-width="2"/><g fill="none" stroke="#b58af0" stroke-width="3"><path d="m73 37 19 14-7 23H61l-7-23zM54 51h38M73 37v37M61 74l12-23 12 23"/></g><text x="108" y="64" fill="#e8f4ff" font-family="Georgia" font-size="22">КУБИКИ</text><circle cx="585" cy="57" r="18" fill="#b58af0"/><text x="620" y="63" fill="#b58af0" font-family="sans-serif" font-size="17">#B58AF0</text><g fill="none" stroke="#b58af0" stroke-width="5"><path d="m380 130 95 69-36 111H321l-36-111zM285 199h190M380 130v180M321 310l59-111 59 111"/></g><g fill="#e8d9ff"><circle cx="250" cy="165" r="4"/><circle cx="503" cy="235" r="5"/><circle cx="520" cy="150" r="3"/></g><text x="48" y="130" fill="#aaa7cf" font-family="sans-serif" font-size="14">гранёная рамка · d20 · звёздные блики</text></svg>
