<svg xmlns="http://www.w3.org/2000/svg" width="960" height="600" viewBox="0 0 960 600">
  <defs><linearGradient id="bg" x2="1" y2="1"><stop stop-color="#0b1630"/><stop offset="1" stop-color="#24173d"/></linearGradient></defs><rect width="960" height="600" fill="url(#bg)"/><rect x="24" y="24" width="912" height="552" rx="30" fill="#101d38" stroke="#72d6d0" stroke-width="2"/>
  <circle cx="850" cy="92" r="36" fill="#d9e7ff"/><circle cx="866" cy="80" r="35" fill="#101d38"/><text x="58" y="82" fill="#e8f4ff" font-family="Georgia,serif" font-size="34" font-weight="bold">B · Лунный арканум</text><text x="58" y="116" fill="#9db9d5" font-family="sans-serif" font-size="16">Холодная ночь, бирюзовое свечение и тонкие руны</text>
  <g transform="translate(58 150)"><rect width="86" height="54" rx="14" fill="#0b1630"/><rect x="102" width="86" height="54" rx="14" fill="#443069"/><rect x="204" width="86" height="54" rx="14" fill="#72d6d0"/><rect x="306" width="86" height="54" rx="14" fill="#d9e7ff"/><rect x="408" width="86" height="54" rx="14" fill="#d39bee"/></g>
  <g transform="translate(58 246)" font-family="Georgia,serif"><text y="-18" fill="#d9e7ff" font-size="18">Меню школы магии</text><rect width="380" height="58" rx="16" fill="#17284a" stroke="#72d6d0"/><text x="20" y="37" fill="#e8f4ff" font-size="22">Иллюзия</text><path d="M340 23l12 12 12-12" fill="none" stroke="#72d6d0" stroke-width="3"/><rect y="66" width="380" height="142" rx="16" fill="#0d1930" stroke="#443069"/><text x="20" y="101" fill="#b8dce8" font-size="19">Безмолвный образ</text><rect x="10" y="115" width="360" height="40" rx="12" fill="#443069"/><text x="20" y="142" fill="#f0d6ff" font-size="19">Невидимость</text><text x="20" y="184" fill="#b8dce8" font-size="19">Размытый образ</text></g>
  <g transform="translate(510 244)"><text y="-16" fill="#d9e7ff" font-family="Georgia,serif" font-size="18">Иконки и кость</text><path d="M30 34l24-20 24 20-9 35H39z" fill="#281d49" stroke="#72d6d0" stroke-width="3"/><path d="M54 14v55M30 34l48 0M39 69l15-35 15 35" stroke="#72d6d0" fill="none"/><text x="47" y="48" text-anchor="middle" fill="#e8f4ff" font-family="Georgia" font-size="18">20</text><path d="M124 47q25-35 50 0-25 35-50 0z" fill="none" stroke="#d39bee" stroke-width="4"/><circle cx="149" cy="47" r="8" fill="#72d6d0"/><path d="M225 62l22-44 22 44M236 42h22" fill="none" stroke="#72d6d0" stroke-width="4"/></g>
  <g transform="translate(510 400)" font-family="Georgia,serif"><text y="-18" fill="#d9e7ff" font-size="18">Подсказки предметов</text><rect width="370" height="52" rx="14" fill="#0c1730" stroke="#72d6d0"/><text x="16" y="33" fill="#8eaac8" font-size="18">Новый предмет…</text><rect y="60" width="370" height="94" rx="14" fill="#17284a" stroke="#443069"/><text x="18" y="94" fill="#d9e7ff" font-size="18">✦ Хрустальный фокус</text><text x="18" y="130" fill="#b5cde4" font-size="18">☾ Свиток тумана</text></g>
</svg>
